HIERARCHY
ROOT Hips
{
	OFFSET 0.000000 97.167313 0.000000
	CHANNELS 6 Xposition Yposition Zposition Xrotation Yrotation Zrotation
	JOINT Spine
	{
		OFFSET 0.000000 13.784798 0.064400
		CHANNELS 3 Xrotation Yrotation Zrotation
		JOINT Spine1
		{
			OFFSET 0.000000 12.037903 0.404700
			CHANNELS 3 Xrotation Yrotation Zrotation
			JOINT Spine2
			{
				OFFSET 0.000000 17.795601 0.420200
				CHANNELS 3 Xrotation Yrotation Zrotation
				JOINT Neck
				{
					OFFSET 0.000000 39.131302 11.954600
					CHANNELS 3 Xrotation Yrotation Zrotation
					JOINT Head
					{
						OFFSET 0.000000 14.456192 15.627699
						CHANNELS 3 Xrotation Yrotation Zrotation
						JOINT HeadTop_End
						{
							OFFSET 0.000000 15.703506 7.603401
							CHANNELS 3 Xrotation Yrotation Zrotation
							End Site
							{
								OFFSET 0.000000 17.447403 0.000000
							}
						}
					}
				}
				JOINT LeftShoulder
				{
					OFFSET 17.399500 24.608795 1.168800
					CHANNELS 3 Xrotation Yrotation Zrotation
					JOINT LeftArm
					{
						OFFSET 18.980635 5.765305 1.818600
						CHANNELS 3 Xrotation Yrotation Zrotation
						JOINT LeftForeArm
						{
							OFFSET 49.290169 0.000000 0.000000
							CHANNELS 3 Xrotation Yrotation Zrotation
							JOINT LeftHand
							{
								OFFSET 31.562012 0.000000 0.000000
								CHANNELS 3 Xrotation Yrotation Zrotation
								JOINT LeftHandThumb1
								{
									OFFSET 6.133995 -4.388519 7.076070
									CHANNELS 3 Xrotation Yrotation Zrotation
									JOINT LeftHandThumb2
									{
										OFFSET 6.037666 -3.485840 3.485847
										CHANNELS 3 Xrotation Yrotation Zrotation
										JOINT LeftHandThumb3
										{
											OFFSET 6.496506 -3.750763 3.750761
											CHANNELS 3 Xrotation Yrotation Zrotation
											JOINT LeftHandThumb4
											{
												OFFSET 5.616882 -3.242905 3.242910
												CHANNELS 3 Xrotation Yrotation Zrotation
												End Site
												{
													OFFSET -1.254608 7.132141 0.375429
												}
											}
										}
									}
								}
								JOINT LeftHandPinky1
								{
									OFFSET 18.920792 -0.453171 -11.426712
									CHANNELS 3 Xrotation Yrotation Zrotation
									JOINT LeftHandPinky2
									{
										OFFSET 4.919586 0.000000 0.000000
										CHANNELS 3 Xrotation Yrotation Zrotation
										JOINT LeftHandPinky3
										{
											OFFSET 5.233047 0.000000 0.000000
											CHANNELS 3 Xrotation Yrotation Zrotation
											JOINT LeftHandPinky4
											{
												OFFSET 5.571716 0.000000 0.000000
												CHANNELS 3 Xrotation Yrotation Zrotation
												End Site
												{
													OFFSET -3.459808 4.342407 -0.466164
												}
											}
										}
									}
								}
								JOINT LeftHandRing1
								{
									OFFSET 22.726120 -0.094986 -6.500475
									CHANNELS 3 Xrotation Yrotation Zrotation
									JOINT LeftHandRing2
									{
										OFFSET 6.408615 0.000000 0.000000
										CHANNELS 3 Xrotation Yrotation Zrotation
										JOINT LeftHandRing3
										{
											OFFSET 6.150223 0.000000 0.000000
											CHANNELS 3 Xrotation Yrotation Zrotation
											JOINT LeftHandRing4
											{
												OFFSET 6.145386 0.000000 0.000000
												CHANNELS 3 Xrotation Yrotation Zrotation
												End Site
												{
													OFFSET -3.671402 4.923981 -0.202372
												}
											}
										}
									}
								}
								JOINT LeftHandMiddle1
								{
									OFFSET 23.373947 0.000000 0.000001
									CHANNELS 3 Xrotation Yrotation Zrotation
									JOINT LeftHandMiddle2
									{
										OFFSET 6.996567 0.000000 0.000000
										CHANNELS 3 Xrotation Yrotation Zrotation
										JOINT LeftHandMiddle3
										{
											OFFSET 7.015945 0.000000 0.000000
											CHANNELS 3 Xrotation Yrotation Zrotation
											JOINT LeftHandMiddle4
											{
												OFFSET 7.721573 0.000000 0.000000
												CHANNELS 3 Xrotation Yrotation Zrotation
												End Site
												{
													OFFSET -4.651108 6.158463 0.251582
												}
											}
										}
									}
								}
								JOINT LeftHandIndex1
								{
									OFFSET 21.310577 -0.490082 6.209344
									CHANNELS 3 Xrotation Yrotation Zrotation
									JOINT LeftHandIndex2
									{
										OFFSET 7.536453 0.000000 0.000000
										CHANNELS 3 Xrotation Yrotation Zrotation
										JOINT LeftHandIndex3
										{
											OFFSET 7.512344 0.000000 0.000000
											CHANNELS 3 Xrotation Yrotation Zrotation
											JOINT LeftHandIndex4
											{
												OFFSET 10.212402 0.000000 0.000001
												CHANNELS 3 Xrotation Yrotation Zrotation
												End Site
												{
													OFFSET -5.180801 8.690506 1.388433
												}
											}
										}
									}
								}
							}
						}
					}
				}
				JOINT RightShoulder
				{
					OFFSET -17.399500 24.608795 1.168800
					CHANNELS 3 Xrotation Yrotation Zrotation
					JOINT RightArm
					{
						OFFSET -18.980635 5.765305 1.818600
						CHANNELS 3 Xrotation Yrotation Zrotation
						JOINT RightForeArm
						{
							OFFSET -49.290169 0.000000 0.000000
							CHANNELS 3 Xrotation Yrotation Zrotation
							JOINT RightHand
							{
								OFFSET -31.562012 0.000000 0.000000
								CHANNELS 3 Xrotation Yrotation Zrotation
								JOINT RightHandThumb1
								{
									OFFSET -6.133995 -4.388519 7.076070
									CHANNELS 3 Xrotation Yrotation Zrotation
									JOINT RightHandThumb2
									{
										OFFSET -6.037666 -3.485840 3.485847
										CHANNELS 3 Xrotation Yrotation Zrotation
										JOINT RightHandThumb3
										{
											OFFSET -6.496506 -3.750763 3.750761
											CHANNELS 3 Xrotation Yrotation Zrotation
											JOINT RightHandThumb4
											{
												OFFSET -5.616882 -3.242905 3.242910
												CHANNELS 3 Xrotation Yrotation Zrotation
												End Site
												{
													OFFSET 1.254608 7.132141 0.375429
												}
											}
										}
									}
								}
								JOINT RightHandIndex1
								{
									OFFSET -21.310577 -0.490082 6.209344
									CHANNELS 3 Xrotation Yrotation Zrotation
									JOINT RightHandIndex2
									{
										OFFSET -7.536453 0.000000 0.000000
										CHANNELS 3 Xrotation Yrotation Zrotation
										JOINT RightHandIndex3
										{
											OFFSET -7.512344 0.000000 0.000000
											CHANNELS 3 Xrotation Yrotation Zrotation
											JOINT RightHandIndex4
											{
												OFFSET -10.212402 0.000000 0.000001
												CHANNELS 3 Xrotation Yrotation Zrotation
												End Site
												{
													OFFSET 5.180801 8.690506 1.388433
												}
											}
										}
									}
								}
								JOINT RightHandMiddle1
								{
									OFFSET -23.373947 0.000000 0.000001
									CHANNELS 3 Xrotation Yrotation Zrotation
									JOINT RightHandMiddle2
									{
										OFFSET -6.996567 0.000000 0.000000
										CHANNELS 3 Xrotation Yrotation Zrotation
										JOINT RightHandMiddle3
										{
											OFFSET -7.015945 0.000000 0.000000
											CHANNELS 3 Xrotation Yrotation Zrotation
											JOINT RightHandMiddle4
											{
												OFFSET -7.721573 0.000000 0.000000
												CHANNELS 3 Xrotation Yrotation Zrotation
												End Site
												{
													OFFSET 4.651108 6.158463 0.251582
												}
											}
										}
									}
								}
								JOINT RightHandRing1
								{
									OFFSET -22.726120 -0.094986 -6.500475
									CHANNELS 3 Xrotation Yrotation Zrotation
									JOINT RightHandRing2
									{
										OFFSET -6.408615 0.000000 0.000000
										CHANNELS 3 Xrotation Yrotation Zrotation
										JOINT RightHandRing3
										{
											OFFSET -6.150223 0.000000 0.000000
											CHANNELS 3 Xrotation Yrotation Zrotation
											JOINT RightHandRing4
											{
												OFFSET -6.145386 0.000000 0.000000
												CHANNELS 3 Xrotation Yrotation Zrotation
												End Site
												{
													OFFSET 3.671402 4.923981 -0.202372
												}
											}
										}
									}
								}
								JOINT RightHandPinky1
								{
									OFFSET -18.920792 -0.453171 -11.426712
									CHANNELS 3 Xrotation Yrotation Zrotation
									JOINT RightHandPinky2
									{
										OFFSET -4.919586 0.000000 0.000000
										CHANNELS 3 Xrotation Yrotation Zrotation
										JOINT RightHandPinky3
										{
											OFFSET -5.233047 0.000000 0.000000
											CHANNELS 3 Xrotation Yrotation Zrotation
											JOINT RightHandPinky4
											{
												OFFSET -5.571716 0.000000 0.000000
												CHANNELS 3 Xrotation Yrotation Zrotation
												End Site
												{
													OFFSET 3.459808 4.342407 -0.466164
												}
											}
										}
									}
								}
							}
						}
					}
				}
			}
		}
	}
	JOINT LeftUpLeg
	{
		OFFSET 19.899099 -7.885101 -3.429500
		CHANNELS 3 Xrotation Yrotation Zrotation
		JOINT LeftLeg
		{
			OFFSET 1.745560 -36.997807 10.304700
			CHANNELS 3 Xrotation Yrotation Zrotation
			JOINT LeftFoot
			{
				OFFSET -1.745558 -29.803308 -13.615400
				CHANNELS 3 Xrotation Yrotation Zrotation
				JOINT LeftToeBase
				{
					OFFSET 1.181900 -18.539904 15.226099
					CHANNELS 3 Xrotation Yrotation Zrotation
					JOINT LeftToe_End
					{
						OFFSET -0.863701 1.402801 16.534700
						CHANNELS 3 Xrotation Yrotation Zrotation
						End Site
						{
							OFFSET 0.000000 16.616566 0.000000
						}
					}
				}
			}
		}
	}
	JOINT RightUpLeg
	{
		OFFSET -19.899099 -7.885101 -3.429500
		CHANNELS 3 Xrotation Yrotation Zrotation
		JOINT RightLeg
		{
			OFFSET -1.745560 -36.997807 10.304700
			CHANNELS 3 Xrotation Yrotation Zrotation
			JOINT RightFoot
			{
				OFFSET 1.745558 -29.803308 -13.615400
				CHANNELS 3 Xrotation Yrotation Zrotation
				JOINT RightToeBase
				{
					OFFSET -1.181900 -18.539904 15.226099
					CHANNELS 3 Xrotation Yrotation Zrotation
					JOINT RightToe_End
					{
						OFFSET 0.863701 1.402801 16.534700
						CHANNELS 3 Xrotation Yrotation Zrotation
						End Site
						{
							OFFSET 0.000000 16.616566 0.000000
						}
					}
				}
			}
		}
	}
}
MOTION
Frames: 4
Frame Time: 0.033333
1.584763 91.461891 2.305660 -3.426736 3.852058 -4.646539 7.489921 -0.145523 0.656956 -2.114713 -0.634068 1.955414 -2.107417 -0.526125 1.991270 -6.842653 -2.682115 0.508907 2.526786 0.702883 0.466853 0.000000 0.000000 -0.000000 1.091371 1.577367 -3.543030 -1.207963 1.492926 -78.012734 20.698687 -13.799218 -0.079277 -0.026770 -3.262869 -0.409679 10.557730 -2.873383 25.085798 -5.464149 26.111890 -7.055789 -6.646970 3.833418 -2.621011 0.000000 0.000002 -0.000001 -6.472594 11.328368 -26.083982 10.736420 2.575053 -37.642566 6.431071 3.097691 -18.098623 -0.000001 0.000000 -0.000002 -4.974583 10.107097 -16.316140 4.008939 4.056159 -38.803725 2.114529 3.156557 -21.139555 -0.000003 0.000000 0.000005 -1.984300 5.666076 -18.667957 0.262851 5.090461 -32.022437 -0.652715 1.126034 -16.743403 0.000000 -0.000003 0.000008 2.372211 3.636006 -10.145415 -2.155743 2.456277 -20.339695 -1.885490 4.845571 -16.122636 0.000000 -0.000000 -0.000003 0.487470 5.285013 4.298002 -7.282521 4.832127 74.584812 13.988543 13.383099 -4.467002 0.106865 3.530096 -2.699040 15.566059 -0.729115 -16.762770 -6.579385 -24.370084 7.035604 -11.554949 5.741408 5.172649 0.000001 0.000000 0.000001 2.252293 -2.297215 4.747741 -2.162977 -2.444718 14.947854 -1.899831 -4.850724 10.729865 -0.000001 -0.000001 -0.000001 -1.987017 -5.675768 8.743247 0.263310 -5.087442 22.099596 -0.663535 -1.134426 6.819850 0.000001 0.000000 -0.000004 -4.977294 -10.114498 7.762271 4.005872 -4.045820 30.251041 2.108931 -3.152164 12.586679 -0.000002 -0.000000 -0.000003 -6.472739 -11.324472 16.980588 10.704477 -2.553606 28.536039 6.417428 -3.075728 8.993290 0.000003 0.000001 0.000004 -28.907177 -9.514722 -2.355950 48.055568 1.339997 0.962275 22.539474 2.114496 12.261997 -27.868538 0.298019 -5.828057 -0.000001 -0.000001 0.000000 -12.875058 -11.268854 10.445346 28.909329 -0.165254 -0.687390 15.159055 -0.568014 -8.385154 -28.211446 1.226860 0.120446 0.000000 0.000000 0.000000 
1.419987 92.480644 5.845839 -3.352299 1.690709 -3.289794 7.689068 0.203843 -0.166026 -2.318856 -0.222383 1.720400 -2.331658 -0.155264 1.725684 -5.977227 -2.388888 -0.354875 2.370362 0.490848 0.837609 0.000000 -0.000000 -0.000000 1.078924 1.796560 -3.761189 -0.780588 0.824650 -77.832150 19.284071 -14.471530 -0.176949 -0.000666 -3.540310 -0.283112 10.562017 -3.020480 25.052227 -5.547160 25.985028 -7.053138 -6.708549 3.699391 -2.649272 0.000000 0.000002 -0.000003 -6.476762 11.326849 -25.932405 10.734121 2.572901 -37.491103 6.428331 3.095347 -17.947328 -0.000001 -0.000000 -0.000001 -4.973943 10.103884 -16.165541 4.008961 4.052432 -38.652529 2.113540 3.153951 -20.988446 -0.000001 0.000001 0.000005 -1.985333 5.663680 -18.516962 0.258252 5.089970 -31.871193 -0.652759 1.123303 -16.592480 0.000001 0.000000 0.000008 2.372474 3.632990 -9.994415 -2.155939 2.453278 -20.188847 -1.886793 4.844599 -15.971619 -0.000001 0.000001 0.000001 0.557744 6.249233 3.550109 -8.156670 5.729318 74.815454 10.861503 14.988350 -3.550632 0.152053 4.235042 -3.479187 15.549014 -0.582955 -16.729160 -6.661194 -24.243179 7.035757 -11.625802 5.870607 5.213655 -0.000001 0.000000 -0.000000 2.252778 -2.294333 4.596735 -2.162817 -2.441786 14.797038 -1.900997 -4.849422 10.578842 -0.000001 -0.000001 -0.000001 -1.987519 -5.673297 8.592346 0.258930 -5.086336 21.948350 -0.663096 -1.131842 6.668898 0.000001 0.000001 -0.000008 -4.976246 -10.111492 7.611773 4.006347 -4.042225 30.099916 2.108384 -3.149541 12.435622 -0.000004 0.000001 -0.000003 -6.476636 -11.322329 16.829175 10.702521 -2.551021 28.384557 6.415107 -3.072858 8.841996 -0.000000 -0.000000 0.000002 -31.509476 -9.621810 -4.362422 39.642944 -0.328984 0.737386 25.889310 2.935950 11.800596 -25.248151 -0.063502 -0.535592 -0.000000 0.000001 0.000000 -9.766455 -10.897704 9.950989 27.610878 3.197088 -0.682371 13.537138 -1.553141 -9.400526 -28.222613 1.001962 0.213795 -0.000000 0.000000 -0.000000 
1.132551 93.719604 9.159872 -3.257465 -0.835996 -1.949293 7.799600 0.545797 -0.829502 -2.382011 0.288574 1.295723 -2.418433 0.310196 1.263340 -5.396730 -2.361258 -1.168973 2.178979 -0.085605 1.539884 0.000000 0.000000 -0.000000 1.044290 2.186470 -3.974957 -0.651905 0.826613 -77.637729 19.636191 -14.775764 0.275421 -0.030053 -3.392217 -0.806772 10.572758 -3.403999 24.964642 -5.763191 25.654272 -7.047141 -6.877574 3.354812 -2.727069 -0.000000 -0.000001 -0.000003 -6.476532 11.323277 -25.539264 10.731266 2.566829 -37.096369 6.425240 3.089047 -17.553006 0.000001 -0.000002 -0.000004 -4.972376 10.100145 -15.772625 4.009204 4.052187 -38.258888 2.110969 3.147092 -20.594530 -0.000000 -0.000002 0.000003 -1.987981 5.657324 -18.123427 0.258051 5.088106 -31.477494 -0.652829 1.116166 -16.199004 -0.000000 -0.000001 0.000006 2.373642 3.629339 -9.600775 -2.156168 2.449746 -19.795381 -1.886708 4.843528 -15.577966 0.000002 0.000001 0.000001 0.613782 7.073656 3.268212 -9.345286 6.821873 74.887785 9.768266 16.269746 -3.119696 0.122640 4.866358 -3.471297 15.504132 -0.201900 -16.641353 -6.874098 -23.912426 7.037039 -11.811171 6.207044 5.321455 -0.000001 -0.000001 -0.000003 2.254698 -2.290721 4.203120 -2.162225 -2.438251 14.403585 -1.900582 -4.846258 10.185343 -0.000003 -0.000003 -0.000001 -1.988933 -5.666614 8.198863 0.258745 -5.082637 21.554743 -0.661923 -1.124850 6.275416 -0.000001 0.000001 -0.000001 -4.976539 -10.107867 7.218381 4.007879 -4.042057 29.706391 2.106954 -3.142500 12.041766 -0.000000 0.000000 -0.000002 -6.476304 -11.317046 16.436247 10.702365 -2.543897 27.989738 6.408752 -3.069269 8.447792 -0.000000 0.000002 0.000008 -32.249431 -8.238986 -5.473798 28.756715 -4.474518 0.343693 28.876510 3.577943 8.464857 -24.629987 -0.259699 0.756197 0.000000 -0.000002 -0.000000 -6.207564 -10.528042 9.128498 25.244869 5.339867 -0.582967 12.318897 -1.340234 -10.676924 -27.954122 0.726173 0.481837 0.000000 0.000000 0.000000 
0.711108 95.027992 12.070896 -3.120594 -3.286362 -1.073236 7.908796 0.855867 -0.844159 -2.426622 0.749219 0.784716 -2.476378 0.739971 0.718318 -4.968566 -2.425993 -2.075413 2.047954 -0.875469 2.397260 -0.000000 0.000000 -0.000000 0.994137 2.331507 -4.080140 -0.517551 0.960918 -77.365109 21.032400 -14.879248 0.933770 -0.067193 -3.152085 -1.576859 10.586761 -3.938464 24.842725 -6.063160 25.193356 -7.041204 -7.113834 2.875020 -2.837160 0.000000 0.000000 0.000003 -6.476364 11.320695 -24.991018 10.731078 2.562639 -36.547137 6.425416 3.084788 -17.004046 -0.000001 -0.000001 0.000001 -4.970208 10.100038 -15.224417 4.009635 4.051893 -37.710376 2.108162 3.146997 -20.045820 -0.000002 0.000000 0.000005 -1.987937 5.652905 -17.575064 0.257908 5.087892 -30.928907 -0.653762 1.115793 -15.650398 -0.000000 0.000000 0.000004 2.375906 3.628929 -9.052355 -2.156206 2.449499 -19.246799 -1.886802 4.843561 -15.029351 0.000001 0.000002 -0.000003 0.694299 7.698385 2.756596 -10.349033 7.498914 75.452212 9.638618 17.893260 -3.147037 0.096883 5.697037 -3.566676 15.440624 0.328980 -16.518427 -7.169907 -23.451460 7.041066 -12.071257 6.674983 5.473872 -0.000001 -0.000002 0.000002 2.257726 -2.290302 3.654673 -2.161053 -2.437995 13.855039 -1.900337 -4.843940 9.636884 -0.000001 -0.000003 0.000003 -1.989927 -5.666411 7.650181 0.258635 -5.079992 21.006165 -0.661134 -1.124680 5.726852 -0.000001 -0.000002 -0.000004 -4.977196 -10.107727 6.669693 4.009840 -4.041836 29.157944 2.105673 -3.142409 11.493119 -0.000001 -0.000001 -0.000002 -6.476243 -11.316883 15.887667 10.702248 -2.543703 27.441197 6.408792 -3.069016 7.899183 -0.000001 0.000002 0.000008 -31.162571 -4.812933 -5.284225 16.644893 -7.128995 0.107527 31.461549 3.551458 5.944679 -24.212934 -0.553942 1.606913 -0.000001 0.000001 0.000002 -2.282849 -9.833918 8.778285 21.652086 6.837716 -0.374434 11.577312 -1.056454 -12.144725 -27.141201 0.351886 1.106682 0.000000 -0.000000 -0.000000 
